<svg xmlns="http://www.w3.org/2000/svg" version="1.1" xmlns:xlink="http://www.w3.org/1999/xlink" xmlns:svgjs="http://svgjs.dev/svgjs" viewBox="0 0 4.864368859341711 3.8249527172280815"><g transform="matrix(1,0,0,1,2.430453499735342,3.6535167725491142)"><rect width="4.864368859341711" height="4.864368859341711" x="-2.430453499735342" y="-4.173224843605929" fill="#facf0e"></rect><g><path d=" M -1.976971866957248 -1.951974114310509 Q -1.9724862203822011 -1.9628003821977484 -1.9597262916636293 -1.9680842332912425 Q -1.9469663629450575 -1.9733680843847363 -1.9161724901761934 -1.9666873978508939 Q -1.885378617407329 -1.9600067113170518 -1.827757271357002 -1.9485530029626605 Q -1.770135925306675 -1.9370992946082692 -1.7042691066580735 -1.925136174928006 Q -1.638402288009472 -1.9131730552477428 -1.5681404603289255 -1.9009745525580553 Q -1.497878632648379 -1.888776049868368 -1.4314511081778967 -1.8781662136740094 Q -1.275415987224906 -1.8542132804553744 -1.201970501959209 -1.8465095623624377 Q -1.183410986226779 -1.844105135512257 -1.1763838874098604 -1.8330013281412887 Q -1.1693567885929421 -1.8218975207703205 -1.172907925464854 -1.8133267253595893 Q -1.176459062336766 -1.804755929948858 -1.1843180818648018 -1.799819886618579 Q -1.1921771013928375 -1.7948838432883 -1.2187790274266497 -1.7995634141385355 Q -1.2453809534604616 -1.804242984988771 -1.305009739788888 -1.8146785684314872 Q -1.3646385261173142 -1.8251141518742036 -1.433134621123678 -1.8371095922669982 Q -1.4360280900361149 -1.8377799094154583 -1.43847046445325 -1.8382633246232913 Q -1.4525330799017873 -1.8081496047646606 -1.4757089205395286 -1.7522138873472568 Q -1.502996603871063 -1.686354091033217 -1.5155836753181313 -1.6508722071324828 Q -1.5130640102869486 -1.6492997009934194 -1.5105443452557656 -1.6477271948543561 Q -1.3893235820153265 -1.5652612600966334 -1.3221175245499435 -1.5220883072919473 Q -1.3009807246958291 -1.5080453633669566 -1.309017508142788 -1.4886483000689859 Q -1.3174280954710007 -1.468349047780412 -1.3391452726705424 -1.4720617882149813 Q -1.3455702069313447 -1.4731382299572267 -1.356518735334148 -1.482431334752496 Q -1.3674672637369514 -1.4917244395477653 -1.3950964527041425 -1.51242137614849 Q -1.4227256416713334 -1.5331183127492145 -1.4588160147226763 -1.558906571648383 Q -1.4949063877740192 -1.5846948305475514 -1.537972565146272 -1.6146947077053189 Q -1.5810387425185246 -1.644694584863086 -1.62662458492196 -1.6762669681599167 Q -1.6722104273253957 -1.7078393514567471 -1.7184729114717836 -1.739692087664518 Q -1.7647353956181717 -1.771544823872289 -1.8079884749310513 -1.8010936065347547 Q -1.851241554243931 -1.8306423891972203 -1.8890976599694567 -1.8566337103932815 Q -1.9269537656949822 -1.8826250315893427 -1.9490700451537477 -1.8981308703268178 Q -1.9883728853354916 -1.924457350097109 -1.976971866957248 -1.951974114310509 M -1.553984326509272 -1.6768248830215202 Q -1.5379754010404176 -1.7103604569019373 -1.5138650506995415 -1.768551646795849 Q -1.493866543052458 -1.8168187577931247 -1.4832581023382383 -1.8462495113143107 Q -1.5282326421638537 -1.8537846035100285 -1.5754626544659773 -1.8622542054088809 Q -1.6488434983066111 -1.875216476217342 -1.7176037858676496 -1.887849913046065 Q -1.830249522323073 -1.908095732684554 -1.9150173398728274 -1.924190366582157 Q -1.8674402175475582 -1.8923214700181201 -1.7861602909247918 -1.8359178224760138 Q -1.6775378528402671 -1.7613144184136078 -1.620706968766822 -1.7224402102433416 Q -1.5864434586474438 -1.699258742751177 -1.553984326509272 -1.6768248830215202 M -1.6867117102078208 -2.4570205170140293 Q -1.6674332725002325 -2.479725084228393 -1.6350513487682714 -2.452229607497898 Q -1.5911310384191748 -2.4149368919323995 -1.5430322127648624 -2.3731353678067957 Q -1.49493338711055 -2.331333843681192 -1.455795588962764 -2.2974614016448194 Q -1.4166577908149782 -2.263588959608447 -1.3644927819704262 -2.2186551188873924 Q -1.256068498062339 -2.1253109978586693 -1.098140813506541 -1.9899335618281553 Q -1.0337600369054338 -2.0627383999400895 -0.9826244321410055 -2.1365408209067307 Q -0.9727358175735346 -2.151204397473082 -0.9593431039469006 -2.152643758585264 Q -0.9459503903202666 -2.1540831196974457 -0.938134063902207 -2.1474462804866365 Q -0.9303177374841475 -2.1408094412758274 -0.9302372634991303 -2.1292111134999887 Q -0.9301567895141132 -2.11761278572415 -0.9419626002386102 -2.1052176549522232 Q -0.9813410101335994 -2.065630528344532 -1.0210392350922233 -2.0151052369145854 Q -1.060737460050847 -1.964579945484639 -1.0677817149565425 -1.953266223097456 Q -1.0748259698622382 -1.941952500710273 -1.0797069844422507 -1.9380900253674767 Q -1.084587999022263 -1.9342275500246804 -1.0907260468057187 -1.9330338095249602 Q -1.1040064283173765 -1.930217956448124 -1.1156571470494883 -1.941391687247782 Q -1.1989608761588326 -2.019811510692832 -1.3394686486739509 -2.1391165965061862 Q -1.4799764211890694 -2.25842168231954 -1.513446879952009 -2.28652115594613 Q -1.546917338714949 -2.31462062957272 -1.5754648701328577 -2.3375792147143652 Q -1.632187726948768 -2.3831803450352376 -1.6805887628292253 -2.4159504223043573 Q -1.6934474753535271 -2.4249470830420576 -1.693714052348498 -2.4367034307991062 Q -1.6939806293434687 -2.448459778556155 -1.6867117102078208 -2.4570205170140293 M -1.2639462621633961 -2.8631358286686583 L -1.1811010396427062 -2.9122150263674507 Q -1.1468038200795256 -2.934709075010939 -1.1283534318366577 -2.94797773811866 Q -1.1099030435937896 -2.961246401226381 -1.0991467235989991 -2.968884931380397 Q -1.088390403604209 -2.976523461534413 -1.078296928550023 -2.9860629789133846 Q -1.0682034534958371 -2.9956024962923555 -1.0539725324800064 -2.9970528867760193 Q -1.0397416114641755 -2.998503277259683 -1.027691228262307 -2.9801297667794078 Q -1.0159086313538133 -2.9621645565320276 -0.9859117517970633 -2.8180459557870563 Q -0.9559148722403132 -2.673927355042085 -0.9452707228950128 -2.62163953652156 Q -0.9346265735497123 -2.5693517180010352 -0.9239055464418191 -2.518282179386363 Q -0.9131845193339257 -2.46721264077169 -0.9032469887276589 -2.4200087127838543 Q -0.8933094581213921 -2.3728047847960188 -0.884530620285483 -2.3335998643552327 Q -0.867863851090648 -2.262780730787814 -0.8592733500341213 -2.234546950292531 L -0.848517030039331 -2.242185480446547 L -0.8440257274774859 -2.2451311296736707 Q -0.7464419718155795 -2.309132053790262 -0.679133497813431 -2.3632035453834526 Q -0.6656463485422304 -2.3738009663502577 -0.6536809411858203 -2.3711378222922073 Q -0.6417155338294103 -2.3684746782341572 -0.6360920216685382 -2.359900373343362 Q -0.6304685095076661 -2.351326068452567 -0.6321877807460714 -2.338811846923742 Q -0.6339070519844767 -2.3262976253949166 -0.6481843185501366 -2.3186855784122313 Q -0.6729368772315464 -2.3047871743280695 -0.7021303438835393 -2.285640454351767 Q -0.7313238105355322 -2.2664937343754645 -0.7515983082407623 -2.2537805062329914 Q -0.7718728059459925 -2.2410672780905183 -0.7910629168920578 -2.2284813223018998 Q -0.8373281155630482 -2.199305857909706 -0.8455776187763738 -2.191851615493639 Q -0.8538271219896995 -2.184397373077572 -0.8598681269276991 -2.182479095225519 Q -0.8659091318656986 -2.1805608173734656 -0.8721344245416476 -2.181149356302877 Q -0.8875571422919998 -2.1832967901526756 -0.8936194868985307 -2.196546685343265 Q -0.8996818315050614 -2.2097965805338546 -0.9069002971305503 -2.2403900430782495 Q -0.9141187627560392 -2.270983505622644 -0.9228578758349518 -2.315469845919735 Q -0.9315969889138646 -2.3599561862168255 -0.9420171257642194 -2.41501860781219 Q -0.9524372626145743 -2.470081029407554 -0.963704532143483 -2.529551255009338 Q -0.9749718016723915 -2.5890214806111223 -0.9874507303143197 -2.6494488206182165 Q -0.9999296589562479 -2.709876160625311 -1.0131946558512024 -2.764824551452486 Q -1.039443621762071 -2.8760735061593756 -1.062836674965408 -2.934890079364788 Q -1.085828760361383 -2.9209784336949607 -1.1246172824864087 -2.895538735824349 Q -1.1993362251061948 -2.84653384413675 -1.2250723813642455 -2.827902834368699 Q -1.265112287359287 -2.798138831047093 -1.2793049609081546 -2.8197787433905286 Q -1.2854640456557762 -2.8291696487471136 -1.2818504079852489 -2.841466478573826 Q -1.2782367703147213 -2.8537633084005383 -1.2639462621633961 -2.8631358286686583 M -0.6484797282840986 -3.0156793239289326 Q -0.6397490357056752 -2.990539765533403 -0.5766139643395121 -2.813988886850827 Q -0.5134788929733489 -2.637438008168252 -0.4382500367143799 -2.444469383936434 Q -0.43252901285396383 -2.4299212249612356 -0.4386994449401238 -2.4188990925934126 Q -0.44486987702628383 -2.4078769602255896 -0.4547548871608551 -2.404342053886078 Q -0.46463989729542643 -2.4008071475465664 -0.4746922815890591 -2.4049908311473396 Q -0.48474466588269177 -2.4091745147481127 -0.4923746709703879 -2.433411274733077 Q -0.5000046760580841 -2.457648034718041 -0.5142112510797556 -2.5002755112324406 Q -0.5284178261014272 -2.5429029877468396 -0.5445973721032912 -2.591047679220069 Q -0.5766276356103207 -2.6864175263400565 -0.6059755789406855 -2.76848609885266 Q -0.6353235222710505 -2.8505546713652636 -0.6519126239384321 -2.8962193716080584 Q -0.6685017256058136 -2.941884071850853 -0.6832320582936335 -2.980175748065968 Q -0.7151924122263265 -3.065199337182792 -0.737120537098995 -3.1149182615651787 Q -0.7437610967858829 -3.129137592043679 -0.7396428828933781 -3.138648001299901 Q -0.7355246690008734 -3.148158410556123 -0.7249500069964483 -3.1519399382681588 Q -0.7143753449920232 -3.1557214659801947 -0.7026315658778903 -3.151883348292026 Q -0.6908877867637574 -3.148045230603858 -0.685494111444684 -3.1307871964416067 Q -0.6801004361256107 -3.113529162279355 -0.6748711750548867 -3.0967308960303397 Q -0.6696419139841627 -3.079932629781324 -0.6634261674233424 -3.0603757560528932 Q -0.6572104208625221 -3.040818882324462 -0.6484797282840986 -3.0156793239289326 M -0.29135012816058015 -2.6871103065422193 Q -0.27433495564542504 -2.6887061334999203 -0.2687285590598731 -2.675990498777352 Q -0.2631221624743211 -2.663274864054784 -0.2602952690063939 -2.6331337013136524 Q -0.25746837553846663 -2.6029925385725203 -0.24674173015350997 -2.57751567407145 Q -0.23601508476855332 -2.5520388095703797 -0.21974363411456518 -2.5354191931609593 Q -0.18671458502044164 -2.502225555398053 -0.1342106241165345 -2.5071498214389587 Q -0.08170666321262737 -2.512074087479864 -0.05421801184597852 -2.553640920058369 Q -0.026729360479329778 -2.5952077526368744 -0.033523023813542 -2.6676437727728204 Q -0.042596439944469766 -2.764387182216131 -0.13182264947317957 -2.8320345246160623 Q -0.15716392566935905 -2.851236464521696 -0.18367497627497248 -2.8698382690013466 Q -0.21018602688058588 -2.8884400734809974 -0.23561849318863398 -2.908614308958926 Q -0.2610509594966821 -2.928788544436854 -0.28207789850260045 -2.9542802083355983 Q -0.32803635663274555 -3.0102919963891672 -0.33519478041443224 -3.0866171988142916 Q -0.3425355844198562 -3.164886992384005 -0.3008654552733605 -3.217347153526346 Q -0.25963587885707784 -3.2692755718266056 -0.1906028932241629 -3.2757500697692774 Q -0.1312928633141937 -3.2813126665932635 -0.0896345414080918 -3.245004962492062 Q -0.04305374875545254 -3.2032738404605015 -0.03888800397338804 -3.1222541425685115 Q -0.039009391312060826 -3.118319365223399 -0.038355961915578385 -3.1139668326760406 Q -0.037702532519096 -3.1096143001286825 -0.037778025586106434 -3.0973466178351643 Q -0.03785351865311687 -3.085078935541646 -0.04595814910612267 -3.0747555451769895 Q -0.05406277955912847 -3.0644321548123323 -0.06451495696129517 -3.063451861109745 Q -0.07496713436346186 -3.062471567407157 -0.08314845474639021 -3.0712675233980145 Q -0.09132977512931859 -3.080063479388872 -0.09035807798848008 -3.095848183825257 Q -0.08736659585176998 -3.131929707941155 -0.08907641044930661 -3.1501602499216785 Q -0.09078622504684325 -3.1683907919022016 -0.09889945206159823 -3.1843042833760964 Q -0.10701267907635317 -3.2002177748499907 -0.12035184518432746 -3.2117177408914626 Q -0.14911155371266804 -3.2359937361091107 -0.19092026332133488 -3.23207256129876 Q -0.23710430300532725 -3.2277410309850003 -0.2633094915384344 -3.193405721529368 Q -0.2921124013968851 -3.155393807235099 -0.2873249205237825 -3.1043482896896335 Q -0.2825374396506799 -3.0533027721441686 -0.2684151594615293 -3.0229949262241576 Q -0.25429287927237865 -2.9926870803041465 -0.2336913943832712 -2.969117210022024 Q -0.21308990949416373 -2.9455473397399015 -0.18779422835391854 -2.926831547620415 Q -0.16249854721367335 -2.908115755500929 -0.13651923945014155 -2.889954503751491 Q -0.11053993168660975 -2.8717932520020533 -0.08517585796246308 -2.8523482382033456 Q -0.05981178423831646 -2.8329032244046384 -0.03887603534426676 -2.8083838560781884 Q 0.007036827729944017 -2.7528582158107673 0.014286441623499346 -2.6755607178133483 Q 0.022767122027281095 -2.585137229589953 -0.018842014234150162 -2.52679769995791 Q -0.06001059776536838 -2.4689899131679485 -0.13730809576278727 -2.461740299274393 Q -0.20925796811258596 -2.4549922309961154 -0.2596675486007951 -2.506172738415015 Q -0.3073272247667277 -2.5541781866105557 -0.3134369622619253 -2.6193219899542926 Q -0.31954669975712285 -2.6844657932980294 -0.29135012816058015 -2.6871103065422193 M 0.40499921614773476 -3.2343953342843137 Q 0.41839091466692785 -3.2316416863789588 0.577964953653176 -3.2028174893638033 Q 0.5999656012204218 -3.198293639233577 0.6046542154396666 -3.1798821584277626 Q 0.6055838695476388 -3.174706030684429 0.6043053901630095 -3.1684884563719464 Q 0.6030269107783803 -3.1622708820594636 0.5945251349030165 -3.15728933879415 Q 0.5860233590276525 -3.1523077955288366 0.5665124307640254 -3.1568181977659346 Q 0.5470015025003983 -3.161328600003033 0.5287846061726045 -3.1660714157671244 Q 0.5105677098448107 -3.170814231531216 0.49488298115809587 -3.174537877223927 Q 0.46686144841446436 -3.1812967566330106 0.44667555606762627 -3.184948953543929 Q 0.4202301058395827 -3.0757324722520876 0.393775417034564 -2.9470765114784108 Q 0.36545218143662567 -2.8093333267095675 0.3552176224130284 -2.7583478725578985 Q 0.3449830633894312 -2.707362418406229 0.33640019018296474 -2.6607730594000705 Q 0.31344556214830444 -2.5418658388116437 0.303079038823839 -2.4841778114538138 Q 0.30021359845730755 -2.467818118683888 0.2906993764571273 -2.4615492674293047 Q 0.28118515445694714 -2.455280416174722 0.27185879298822335 -2.4571981352516654 Q 0.2625324315194996 -2.4591158543286094 0.25520868580264006 -2.4683484905177724 Q 0.2478849400857805 -2.477581126706935 0.2509336216952808 -2.4924076500674706 L 0.2633384851625067 -2.555160012707458 L 0.3620402971198661 -3.010929141520881 Q 0.3882982967887881 -3.1386285524003297 0.3964566866206522 -3.1952751331890106 Q 0.37120645899165655 -3.20096567024269 0.3358006650120897 -3.2057534489746526 Q 0.294078952151992 -3.2113414321441307 0.27541950526798054 -3.213932010646209 Q 0.25676005838396904 -3.216522589148287 0.2505828277508704 -3.225270226443772 Q 0.24440559711777168 -3.2340178637392567 0.24632331619471542 -3.2433442252079807 Q 0.24824103527165917 -3.2526705866767043 0.2577619812184033 -3.2601842975830966 Q 0.26728292716514745 -3.267698008489489 0.28411417093562324 -3.2634893639031 Q 0.30094541470609903 -3.2592807193167106 0.31328221876301565 -3.2562454856003384 Q 0.32561902281993227 -3.2532102518839663 0.33484703972060764 -3.250814257859908 Q 0.344075056621283 -3.2484182638358505 0.3511508362599452 -3.2464648203680104 Q 0.3582266158986074 -3.2445113769001708 0.36559070529485077 -3.242747898621863 Q 0.37295479469109416 -3.240984420343556 0.382520293633375 -3.239017528982588 L 0.40499921614773476 -3.2343953342843137 M 1.043259479598651 -3.003204599348961 Q 1.0534808278671897 -2.9974728333788825 1.0572221464492402 -2.984178571513369 Q 1.060963465031291 -2.970884309647855 1.050695896947468 -2.941093854493351 Q 1.040428328863645 -2.911303399338847 1.0222555496903727 -2.855436082839498 Q 1.0040827705171003 -2.7995687663401485 0.9844312063419831 -2.735573687960297 Q 0.9647796421668656 -2.671578609580446 0.9443757460775797 -2.6032469996092273 Q 0.9239718499882936 -2.5349153896380088 0.9055979543467436 -2.470203840511898 Q 0.8634008419331193 -2.318085118177851 0.8470846715116971 -2.2460617250257076 Q 0.8425070940863846 -2.2279155772908448 0.8306516878570488 -2.2222477735670263 Q 0.8187962816277129 -2.216579969843208 0.8107043809151198 -2.221117617902853 Q 0.8026124802025267 -2.225655265962498 0.7986382521820479 -2.2340418161079203 Q 0.7946640241615691 -2.242428366253342 0.8024498234599751 -2.268292282842593 Q 0.810235622758381 -2.294156199431844 0.8276342593887511 -2.352137067002064 Q 0.8450328960191211 -2.410117934572283 0.8650267990822932 -2.476720107672253 Q 0.8660338510636236 -2.4795142683214744 0.8668020794628674 -2.4818825394595065 Q 0.8385580634482677 -2.4994002115749616 0.7857477640608184 -2.529014335753697 Q 0.7235678954272085 -2.5638825787383377 0.6898191087373008 -2.580568436514248 Q 0.6879602777335923 -2.5782519230291996 0.6861014467298836 -2.575935409544152 Q 0.5899080534138939 -2.465292131761835 0.5391066608734706 -2.4036498043408994 Q 0.522667763075164 -2.3843176750911206 0.5043545140940323 -2.3945870891208436 Q 0.4851894860905225 -2.4053341503147396 0.49143882859044086 -2.426461524627926 Q 0.493265866623999 -2.432714559019644 0.5037859325231252 -2.44249005309416 Q 0.5143059984222513 -2.452265547168676 0.5381184802409914 -2.4772595659986147 Q 0.5619309620597315 -2.5022535848285536 0.5917975840537704 -2.5350489231360145 Q 0.6216642060478093 -2.5678442614434758 0.6565361409242496 -2.607069717730341 Q 0.6914080758006897 -2.6462951740172063 0.7281388416808386 -2.6878371437891193 Q 0.7648696075609875 -2.7293791135610324 0.8019586088142662 -2.7715599175997294 Q 0.8390476100675449 -2.813740721638426 0.873493655432796 -2.8532050015073778 Q 0.9079397007980472 -2.892669281376329 0.9382163158182 -2.927194056555039 Q 0.9684929308383529 -2.961718831733749 0.9865000784052974 -2.981850982352922 Q 1.0172802194161155 -3.017772837856242 1.043259479598651 -3.003204599348961 M 0.7201216025839456 -2.61563851299519 Q 0.7515339111059716 -2.5957843627118535 0.8064736580493665 -2.564976120622685 Q 0.8520438357466011 -2.5394219973394208 0.8800172352089639 -2.5254149566194473 Q 0.8928065014438713 -2.569186197361474 0.9067898855892116 -2.615086885659447 Q 0.9283202454508711 -2.686425601035481 0.9489788616073189 -2.7532148400645537 Q 0.98237498634569 -2.8626847172311884 1.0083594436438603 -2.944961251622021 Q 0.9710992729465542 -2.9014769002232645 0.9054989547122799 -2.827420191037544 Q 0.8185997164148331 -2.728359480680468 0.7732912662624011 -2.676512612016882 Q 0.7462287872590002 -2.6452237834836576 0.7201216025839456 -2.61563851299519 M 1.7445147525319804 -2.3417459852863907 Q 1.555528409743086 -2.1887051195033256 1.4779394285276517 -2.124310596066588 Q 1.4003504473122175 -2.05991607262985 1.3642480772125998 -2.029635849858649 Q 1.328145707112982 -1.9993556270874486 1.2957687248257856 -1.97184999744962 Q 1.227257424599314 -1.9137203593150405 1.2026750036625102 -1.8917319681042977 Q 1.1780925827257065 -1.8697435768935549 1.1713370190626504 -1.8679440857682037 Q 1.1645814553995943 -1.8661445946428528 1.1580814744538013 -1.8670953893219022 Q 1.1313939792195284 -1.8709624637174156 1.128321443424725 -1.8976013442937454 Q 1.1272171642611606 -1.9081066030981941 1.133740066739013 -1.9185965808812702 Q 1.2032375926041416 -2.0321153091797526 1.2782290982289037 -2.173037231747922 Q 1.3532206038536658 -2.313959154316092 1.3849072430959377 -2.371349834747804 Q 1.442445190553729 -2.4755773221488364 1.49287753390914 -2.559313097886183 L 0.9727831029606981 -2.1194147107188703 Q 0.9611353624392528 -2.1097477362562125 0.950509952786859 -2.1110819050111562 Q 0.9398845431344652 -2.1124160737661 0.9334918664736752 -2.1201186118528623 Q 0.9270991898128853 -2.1278211499396247 0.9278416306357025 -2.1395418124479844 Q 0.9285840714585197 -2.151262474956344 0.9412951169962731 -2.1611773916255785 Q 1.0477402262873714 -2.2431754745938526 1.179998441240557 -2.3529424104279046 L 1.4028084454088503 -2.537862276761975 Q 1.461047148016077 -2.5861971490752653 1.5025056315475789 -2.6218744594256065 Q 1.516407773460272 -2.633412461203618 1.5307509304144005 -2.6310392947613375 Q 1.545094087368529 -2.628666128319057 1.5528900345158339 -2.619272789188859 Q 1.570352956125797 -2.5982317095372163 1.5560521591158367 -2.5749410974111875 Q 1.541751362105877 -2.5516504852851587 1.518413858254211 -2.5113417868459464 Q 1.495076354402545 -2.4710330884067337 1.4667188823338582 -2.421481763728014 Q 1.4383614102651716 -2.3719304390492946 1.4069904291641353 -2.3160708204627287 Q 1.375619448063099 -2.2602112018761633 1.3446242005272704 -2.2046634211754896 Q 1.3136289529914418 -2.1491156404748164 1.2845161935369962 -2.097033844613958 Q 1.2554034340825506 -2.0449520487530997 1.2316863764103334 -2.002424717017641 Q 1.2079693187381164 -1.959897385282182 1.1909668505816988 -1.9299227456830992 Q 1.1901514877719674 -1.9286114984602147 1.1897118585274438 -1.9276120891232225 Q 1.2608609342210573 -1.9917381832797556 1.3460961983546245 -2.0656514027468917 Q 1.4501181407485875 -2.155156516508638 1.5016294072770728 -2.2001288880117724 Q 1.553140673805558 -2.2451012595149074 1.605967007812271 -2.291165063618665 Q 1.658793341818984 -2.3372288677224224 1.710212585083839 -2.383076677459261 Q 1.7222360591704922 -2.3930554898078116 1.7335170924343282 -2.391313639648002 Q 1.7447981256981644 -2.3895717894881923 1.7513467213019005 -2.381681384618826 Q 1.7578953169056364 -2.37379097974946 1.757216771762135 -2.3627578886922005 Q 1.7565382266186336 -2.3517247976349407 1.7445147525319804 -2.3417459852863907 M 1.9911604895722073 -1.9117560461682372 Q 1.9959674064941617 -1.8989570729390657 2.0566205566342406 -1.7485712237708737 Q 2.064517634434594 -1.7275443391800918 2.0514374031721734 -1.7137648878527945 Q 2.0475530437220337 -1.710219707062215 2.041610663294204 -1.707987924205593 Q 2.0356682828663746 -1.7057561413489717 2.026922215279834 -1.710295113491514 Q 2.0181761476932936 -1.7148340856340567 2.0115945541014737 -1.7337471148954138 Q 2.005012960509654 -1.7526601441567706 1.999317662115479 -1.7706020835555927 Q 1.993622363721304 -1.7885440229544147 1.988414174964328 -1.8038002027217228 Q 1.9791995266808653 -1.8311128189490455 1.9715320451111775 -1.8501396031884476 Q 1.8650242173224232 -1.814311063680729 1.7420626530850234 -1.7681303261090962 Q 1.6104160712992572 -1.7186877520547086 1.561820100211907 -1.7001757470974685 Q 1.5132241291245565 -1.6816637421402285 1.4692281802179228 -1.6640969961442316 Q 1.3563808727154685 -1.6201501277037962 1.302043157117799 -1.5981777366208663 Q 1.2866732223724462 -1.5918836598860229 1.276298322819104 -1.596593264495633 Q 1.265923423265762 -1.6013028691052433 1.2625757489808294 -1.6102164397469878 Q 1.2592280746958968 -1.6191300103887325 1.26313722191004 -1.6302474467112313 Q 1.2670463691241831 -1.6413648830337302 1.281216660913623 -1.646686826768751 L 1.340925895774321 -1.6696334371260793 L 1.7791790601699826 -1.829012577418032 Q 1.90122641203387 -1.8748499637809537 1.9535061066538488 -1.8981357527978415 Q 1.9448644058097628 -1.922534056300272 1.9300465557580297 -1.955044429911692 Q 1.9125398166629188 -1.9933255083465864 1.9047875404283414 -2.0104949075258087 Q 1.8970352641937638 -2.0276643067050313 1.9011450473254177 -2.0375531397584616 Q 1.9052548304570713 -2.0474419728118924 1.914168401098816 -2.050789647096825 Q 1.9230819717405607 -2.0541373213817575 1.9345137989586154 -2.0500854588764144 Q 1.94594562617667 -2.0460335963710707 1.9513544508511567 -2.029548813334695 Q 1.956763275525643 -2.013064030298319 1.9607697350521303 -2.001007593838304 Q 1.9647761945786173 -1.988951157378289 1.9676667626767936 -1.979865911132189 Q 1.97055733077497 -1.9707806648860888 1.9726753586535466 -1.9637523964803913 Q 1.9747933865321232 -1.9567241280746939 1.9772258053062555 -1.949553144377796 Q 1.979658224080388 -1.9423821606808982 1.9830917361674982 -1.9332400369457756 L 1.9911604895722073 -1.9117560461682372" fill="#202020" fill-rule="nonzero"></path></g><g clip-path="url(&quot;#SvgjsClipPath1003&quot;)"><g clip-path="url(&quot;#SvgjsClipPath1000&quot;)"><path d=" M 0.06268319721890825 -1.432310839016413 C 0.061695326110169035 -1.4838636837140073 0.03845561955486165 -1.53246901212327 -0.001049195413416193 -1.565605718055871 C -0.03980433563194363 -1.5321780674234535 -0.06202572320436761 -1.4834904167312362 -0.06188591943773636 -1.432310839016413 C -0.06200081896350351 -1.381168297315237 -0.0397810212464772 -1.3325245737911096 -0.0010491954134175252 -1.2991266930021208 C 0.038432099808922926 -1.3322340550094207 0.06167006632903271 -1.3807953689388144 0.06268319721890825 -1.4323108390164132 Z M -0.2124108571924922 -1.860991599328313 L 0.004675701987490122 -1.8261660629146814 L 0.22187853084389386 -1.8580184176026977 L 0.23922485923561132 -1.860991599328313 L 0.2536201525067475 -1.8464246698681754 L 0.40720132175598966 -1.6900917849436436 L 0.6041123237513496 -1.588771066919882 L 0.6185962034426152 -1.582935436493814 L 0.6214586521430671 -1.562649146284029 L 0.6561679188802786 -1.3454463174276263 L 0.7547535311825254 -1.1485297787810085 L 0.7633408772838822 -1.1340791189972914 L 0.7547535311825254 -1.1167660105131219 L 0.6533054701798257 -0.919849471866504 L 0.6156174850657407 -0.7026521796613594 L 0.6128159395291276 -0.6852228015007691 L 0.5982766933252807 -0.6765247223742483 L 0.4013656913299207 -0.5780553797484231 L 0.24503280640538827 -0.4245794068730857 L 0.23049356020154133 -0.41012874708936886 L 0.21315276846108 -0.41301887904611245 L -0.004050060395322408 -0.450706864160197 L -0.22113661957530473 -0.41596437751543713 L -0.23856599773589404 -0.4130188790461127 L -0.2530166575196102 -0.4275525885987015 L -0.40657568016381906 -0.5838910101744912 L -0.6035143654154697 -0.685211728198253 L -0.6179373419428952 -0.6939374905810642 L -0.6207997906433482 -0.7113391854853641 L -0.6555422772881097 -0.9284534279216368 L -0.7540116199139348 -1.1253699665682546 L -0.7627429189480036 -1.1427716614725543 L -0.7540116199139348 -1.1572223212562713 L -0.652690901890173 -1.3541333232516308 L -0.6179484152454131 -1.5713638353643242 L -0.6149752335197974 -1.5887599936173658 L -0.5975790752667562 -1.5973805596262727 L -0.40075112304026816 -1.695849902252098 L -0.24426874853176594 -1.8493148018249188 L -0.2297904054917579 -1.8638485113775076 Z M -0.4122839676109499 -1.8204134822574853 C -0.365953269882927 -1.8696010920347037 -0.35153029335550023 -1.9072946138000464 -0.35153029335550023 -1.93619593336748 C -0.3509515341358852 -1.9454075631421892 -0.3553227578239395 -1.9542301777481017 -0.3630022347623445 -1.9593502089289756 C -0.36884340183966946 -1.962323390654591 -0.37745843119731814 -1.9593502089289756 -0.3861565103238387 -1.9477619978457117 C -0.4035526685768812 -1.9275809040098313 -0.41803654826814685 -1.8870027869390034 -0.4122839676109499 -1.8204190189087435 Z M -0.29066034942362906 -1.93619593336748 C -0.29066034942362906 -1.889865235639456 -0.3196502554111934 -1.8175510335570326 -0.4151464163114017 -1.7363892627641189 C -0.4151464163114017 -1.733532350714924 -0.4180365482681455 -1.733532350714924 -0.4210097299937611 -1.7306699020144714 L -0.4238721786942129 -1.7306699020144714 C -0.5310119171902694 -1.6697999580826006 -0.6091949696063086 -1.666937509382148 -0.652635535377589 -1.6842506178663175 C -0.690240470722802 -1.6987898640701644 -0.7105267609325869 -1.727691183637598 -0.7105267609325869 -1.7595490749768725 C -0.7105267609325869 -1.788566664220727 -0.690240470722802 -1.8175565702082908 -0.652635535377589 -1.8320072299920076 C -0.6149198670072148 -1.849320338476177 -0.5541938760080557 -1.8464302065194338 -0.4730376418663983 -1.8117154031309646 C -0.47887327229246707 -1.9014589833739783 -0.45858698208268217 -1.9564877602285229 -0.4324595247955709 -1.9883345782652813 C -0.40355266857687977 -2.017324484252845 -0.3717058505401212 -2.0260502466356565 -0.34282667757771934 -2.017324484252845 C -0.31381462498512325 -2.0057639564258714 -0.2935504813803701 -1.9767463671820171 -0.2906603494236276 -1.93619593336748 Z M -0.6323880017266139 -1.7392849313721204 C -0.6062328611832122 -1.7306699020144714 -0.5629030284370942 -1.7306699020144714 -0.5020386211564819 -1.7595435383256144 C -0.5629030284370942 -1.7856709956127255 -0.6062328611832122 -1.7856709956127255 -0.6323880017266139 -1.7769729164862047 C -0.6439485295535863 -1.7711317494088785 -0.6497841599796551 -1.7653791687516824 -0.6497841599796551 -1.7595435383256144 C -0.6497841599796551 -1.7508454591990936 -0.6439485295535863 -1.7451205617981882 -0.6323880017266139 -1.7392849313721204 Z M -0.736665291522216 -1.4468722318252925 C -0.7279672123956955 -1.5134670731580688 -0.736665291522216 -1.553934457203734 -0.7539784000063854 -1.5742152107622607 C -0.7627096990404554 -1.5857757385892342 -0.7712970451418135 -1.5887489203148493 -0.7771326755678809 -1.5887489203148493 C -0.7829683059939497 -1.5857757385892342 -0.7886932033948546 -1.577188392487876 -0.7916663851204703 -1.5656001814046119 C -0.7916663851204703 -1.536610275417048 -0.7799951242683341 -1.4960321583462202 -0.736665291522216 -1.4468666951740343 Z M -0.7076477022783625 -1.6119087325276031 C -0.6758285674978946 -1.5742207474135188 -0.6584822391061756 -1.4960376949974785 -0.6873890953248668 -1.3743863935538667 L -0.69025154402532 -1.3743863935538667 L -0.69025154402532 -1.3715239448534142 L -0.69025154402532 -1.3715239448534142 L -0.69025154402532 -1.3686670328042196 C -0.742390188923121 -1.2556584439745475 -0.8031715464348628 -1.2064431509410383 -0.8494745609065963 -1.194904769719097 C -0.8900526779774237 -1.1833110219845748 -0.9219050326654412 -1.19776721841955 -0.9393344108260305 -1.220927030632304 C -0.9567637889866198 -1.2440868428450578 -0.9595099680106529 -1.2788182561873012 -0.9393344108260305 -1.313643792600933 L -0.9363556924491573 -1.3165339245576764 C -0.9131792702826287 -1.3512487279461456 -0.8640138071104418 -1.3859912145909052 -0.7799951242683341 -1.4034150561002372 C -0.8379970828484945 -1.4700098974330136 -0.8552935813788897 -1.5307580350372056 -0.8494745609065963 -1.5713416887592917 C -0.8467062352775316 -1.6118921225738287 -0.8235464230647771 -1.6379365300920679 -0.7944457840520502 -1.6466401458698467 C -0.7611780854023875 -1.653369215344399 -0.7270875773133149 -1.6397260535308604 -0.707647702278361 -1.611903195876345 Z M -0.8640138071104418 -1.2528236785303855 C -0.8379915461972356 -1.2586593089564535 -0.8061502648117359 -1.284676033218402 -0.7712970451418135 -1.3425672587733992 C -0.8350239011228775 -1.3281165989896824 -0.8698494375365093 -1.3049678600794448 -0.8871902292769706 -1.284676033218402 L -0.8871902292769706 -1.281808047866691 C -0.8930258597030393 -1.2702198367834268 -0.8958938450547487 -1.261521757656906 -0.8900526779774237 -1.2556861272308382 C -0.8871902292769706 -1.249933546573642 -0.8785475166630312 -1.249933546573642 -0.864030417064216 -1.2528236785303855 Z M -0.7771326755678809 -0.9516021668318742 C -0.8090127135121891 -1.012438890856196 -0.8408595315489463 -1.0384832983744354 -0.866876255810895 -1.047181377500956 C -0.8813269155946112 -1.0500438262014087 -0.8900526779774237 -1.047181377500956 -0.8930258597030393 -1.0414564801000505 C -0.8987562937552032 -1.0384832983744354 -0.89589384505475 -1.0268950872911713 -0.8900526779774237 -1.0153345594641978 C -0.8755743349374157 -0.9921802839027023 -0.8408595315489463 -0.9690038617361738 -0.7771326755678809 -0.9516021668318744 Z M -0.8524311326784365 -1.105188872732374 C -0.8031549364810873 -1.0906219432722364 -0.7452304910185411 -1.0414564801000505 -0.6989274765468088 -0.9255632959648932 C -0.6960650278463557 -0.9255632959648932 -0.6960650278463557 -0.9226953106131823 -0.6960650278463557 -0.9198328619127298 L -0.6960650278463557 -0.9198328619127298 C -0.6699375705592445 -0.7952582086048259 -0.6873669487198351 -0.7199597514942708 -0.7192469866641406 -0.6823437428465422 C -0.7452304910185411 -0.6504969248097836 -0.7799729776633011 -0.6417656257757143 -0.808990566907156 -0.6504969248097836 C -0.8380081561510097 -0.6592282238438532 -0.8581560300793414 -0.6880686402474474 -0.8611292118049557 -0.7286467573182753 C -0.8639916605054089 -0.7692248743891033 -0.8466785520212396 -0.8271160999441005 -0.7858307546944014 -0.8937109412768767 C -0.8727118862369625 -0.9139972314866616 -0.9219050326654399 -0.9516021668318739 -0.9421968595264824 -0.9864277032455058 C -0.9624831497362671 -1.0211701898902656 -0.9595099680106516 -1.0558794566274767 -0.9421968595264824 -1.079061415445263 C -0.9204520056653304 -1.1053215803419072 -0.8848957359020516 -1.1156732391125233 -0.8524532792834681 -1.105188872732374 Z M -0.7655500011358742 -0.7199486781917546 C -0.7481206229752848 -0.7402349684015395 -0.7366431449171831 -0.7808130854723672 -0.7452304910185411 -0.8502703755055963 C -0.7886710567898216 -0.7981317306077951 -0.8031493998298282 -0.7576366633058391 -0.8031493998298282 -0.7315092060187283 C -0.8002869511293765 -0.7170862294913021 -0.7973968191726328 -0.7113336488341058 -0.7886710567898216 -0.7083604671084904 C -0.7829461593889153 -0.7054980184080379 -0.7742480802623948 -0.7113336488341058 -0.7655500011358742 -0.7199486781917546 Z M -0.5193295830356182 -0.5288677699712048 C -0.580199526967488 -0.5578632126100265 -0.6207444241307671 -0.560720124659221 -0.6467888316490065 -0.5520220455327003 L -0.649762013374622 -0.5520220455327003 C -0.661239491432724 -0.5461864151066325 -0.6670806585100488 -0.5404338344494364 -0.6670806585100488 -0.5345926673721102 C -0.6670806585100488 -0.5288677699712048 -0.6612394914327225 -0.5201475442396515 -0.649762013374622 -0.5144171101874879 L -0.649762013374622 -0.5144171101874879 C -0.6236345560875108 -0.5057190310609669 -0.580199526967488 -0.5057190310609669 -0.5193295830356182 -0.5288677699712048 Z M -0.6670806585100488 -0.6099132710876978 C -0.6207444241307671 -0.6244525172915447 -0.545457040322728 -0.6186168868654767 -0.4384169615493201 -0.554884494233153 L -0.4384169615493201 -0.554884494233153 C -0.4354382431724455 -0.554884494233153 -0.4354382431724455 -0.5520220455327007 -0.43246506144682995 -0.5520220455327007 L -0.43246506144682995 -0.5520220455327007 C -0.3398590325033627 -0.4680033626905922 -0.31095771293593044 -0.39566147735187807 -0.31382016163638227 -0.3463852811545296 L -0.31382016163638227 -0.3463852811545296 C -0.3166826103368353 -0.30591789710886386 -0.33699658380291087 -0.2769279911213003 -0.3659588065341832 -0.26822991199477975 C -0.394921029265457 -0.2595318328682592 -0.42971334577154063 -0.26822991199477975 -0.455730070033488 -0.2972142813310854 C -0.48175233094669434 -0.3290666360191017 -0.49917063580476845 -0.38695786157409917 -0.49043933677069834 -0.47670144181711294 C -0.5743749698439357 -0.44199217507990207 -0.6352449137758055 -0.44484908712909643 -0.6729328988898904 -0.4593883333329434 L -0.6729328988898904 -0.4593883333329434 C -0.7105322975838445 -0.47670144181711294 -0.7279616757444352 -0.5057190310609674 -0.7279616757444352 -0.5345926673721102 C -0.725533207765043 -0.5690756525417444 -0.7026764902800502 -0.5987455349313491 -0.6699541805130158 -0.6098911244826652 Z M -0.37466795896322036 -0.3493584628801447 C -0.3716947772376047 -0.3753807237933511 -0.38614543702132353 -0.41594776756166296 -0.4324484514930558 -0.46514091399013924 C -0.4384003515955446 -0.39855160930862144 -0.42672355409214946 -0.3579734922377935 -0.4092941759315588 -0.33768166537675026 C -0.40068468322516904 -0.326121137549777 -0.3919810674473896 -0.32323100559303364 -0.3861454370213222 -0.326121137549777 C -0.3804205396204159 -0.326121137549777 -0.3746679589632189 -0.33481921667629777 -0.3746679589632189 -0.3493750728339189 Z M -0.06184716287892922 -0.34066038375362395 C -0.12846968746799592 -0.3290666360191017 -0.16320663746149833 -0.3059178971088643 -0.17774588366534516 -0.2826805717784966 C -0.18644396279186437 -0.27109236069523246 -0.18644396279186437 -0.262471794686326 -0.18346524441499124 -0.25665831086529023 C -0.180608332365797 -0.2509334134643848 -0.1690422678875657 -0.2509334134643848 -0.1573710070354295 -0.2537958621648373 C -0.1314428691936116 -0.2595152229144848 -0.09658411287243018 -0.2826971817322712 -0.06184716287892922 -0.34067699370739857 Z M -0.22977379553798372 -0.3175061081921282 C -0.20089462257558321 -0.3579734922377935 -0.13418904821764333 -0.3985516093086212 -0.012681699706742489 -0.407249688435142 L -0.0010104388546076093 -0.407249688435142 C 0.12050244630755069 -0.39566147735187784 0.18723570392178124 -0.355111043537341 0.21321920827618046 -0.31167047776606016 C 0.2343265593276046 -0.2847404452633939 0.23548601027624583 -0.24721863903182228 0.21608165697663495 -0.21903676556630325 C 0.1986854987235912 -0.19588249000480729 0.1669161938044469 -0.1813487804522187 0.12633807673361963 -0.19004685957873968 C 0.08587622933921224 -0.2016350706620036 0.03659449649060542 -0.23634987405047303 -0.0068460692806751045 -0.3145329264665131 C -0.05314908375240868 -0.23634987405047303 -0.10528772865020974 -0.20163507066200337 -0.14289266399542144 -0.19290930827919217 C -0.18346524441499124 -0.18421122915267119 -0.2153452823592994 -0.19874493870526022 -0.23274697726359805 -0.22478934622349933 C -0.25008776900405927 -0.2479380851337365 -0.25008776900405927 -0.2826805717784966 -0.22977379553798372 -0.3175061081921282 Z M 0.16405374510399506 -0.279790439821753 C 0.1495200355514058 -0.30294471538324874 0.1119151002061941 -0.326121137549777 0.04816056096883814 -0.34066038375362395 C 0.08003506226188717 -0.2826805717784966 0.11477754890664593 -0.2566417009115154 0.1408773229374679 -0.2509168035106102 C 0.15535566597747452 -0.245075636433284 0.16405374510399506 -0.2479380851337365 0.16689958385067405 -0.2537792522110629 C 0.1697620325511272 -0.2594986129607102 0.1697620325511272 -0.26822991199477975 0.1640371351502209 -0.27980151312426926 Z M 0.016308206280821858 -0.3985516093086212 C 0.016308206280821858 -0.39566147735187784 0.01919833823756434 -0.39566147735187784 0.01919833823756434 -0.3927104422312948 M 0.01919833823756434 -0.3927104422312948 L 0.01919833823756434 -0.38982031027455166 M 0.4188559726543516 -0.4564428348636185 C 0.3724422251574556 -0.41011213713559447 0.35799156537373944 -0.3695617033210574 0.35799156537373944 -0.34066038375362395 C 0.360964747099355 -0.3290666360191017 0.36382719579980816 -0.3203685568925807 0.3696905094821662 -0.3175061081921282 L 0.3696905094821662 -0.3175061081921282 C 0.3794496320166977 -0.31805935555141085 0.3886669588495074 -0.32217258026329487 0.39559650071895247 -0.3290666360191017 C 0.4130203422282842 -0.3493584628801447 0.42469160308042186 -0.38982031027455166 0.41885043600309546 -0.4564428348636187 Z M 0.3001003398187415 -0.34066038375362395 C 0.29723789111828836 -0.38982031027455166 0.3261226007319479 -0.46227846528968697 0.4217184213548034 -0.5433018198011474 C 0.42328025205796427 -0.5448314149221694 0.4252825442369964 -0.5458325610116843 0.42744331875570973 -0.5461642685015999 L 0.42744331875570973 -0.5461642685015999 C 0.5347270101844755 -0.6098911244826652 0.6128823793442254 -0.6157322915599914 0.659213077072251 -0.5954404646989484 C 0.6968124757662052 -0.5809898049152316 0.7142418539267957 -0.551999898927668 0.7142418539267957 -0.5230155295913625 C 0.7171043026272489 -0.4911354916470554 0.6968124757662065 -0.4622563186846542 0.659213077072251 -0.4477170724808073 C 0.6215250919581662 -0.4332608760458325 0.5606606846775538 -0.4304039639966377 0.4796982333299321 -0.4680033626905922 C 0.48545081398712775 -0.37826531909883654 0.4680214358265383 -0.3203685568925807 0.43912011625910485 -0.28852173885582255 C 0.4130203422282842 -0.25949861296071 0.37827785558352434 -0.2509168035106102 0.3492879495959612 -0.26247179468632553 L 0.3492879495959612 -0.26247179468632553 C 0.32326568868275485 -0.27109236069523246 0.30010033981874285 -0.3000767300315379 0.30010033981874285 -0.34066038375362395 Z M 0.6360588015107554 -0.5404338344494364 C 0.6099313442236441 -0.5491595968322478 0.5693532271528156 -0.5491595968322478 0.5085995528973658 -0.5201475442396515 C 0.5693532271528156 -0.4941252833264451 0.6128823793442267 -0.4941252833264451 0.6360588015107554 -0.502828899104224 C 0.650481778038181 -0.5085814797614201 0.6562343586953777 -0.5144171101874879 0.6562343586953777 -0.5230376761963953 C 0.6562343586953777 -0.528867769971205 0.6475362795688572 -0.5345926673721102 0.6360588015107554 -0.5404338344494366 Z M 0.7402585781887433 -0.8358197157218794 C 0.7315272791546744 -0.7692248743891033 0.7431154902379388 -0.7286467573182753 0.7575716866729124 -0.7054980184080377 C 0.766269765799433 -0.6967944026302586 0.774967844925955 -0.6910418219730627 0.7807204255831505 -0.6939319539298061 C 0.7894461879659617 -0.6967944026302586 0.7924193696915772 -0.702635569707585 0.7952873550432881 -0.7170862294913016 L 0.7952873550432881 -0.7170862294913016 C 0.7981498037437412 -0.7431084904045082 0.783693607308766 -0.783681070824078 0.7402585781887433 -0.8358197157218792 Z M 0.7112631355499214 -0.6678930830628254 C 0.6823618159824877 -0.7083604671084904 0.6621032090289934 -0.7836810708240782 0.6910598951090082 -0.9052991523601408 L 0.6910598951090082 -0.9052991523601408 C 0.6910598951090082 -0.9082446508294655 0.6910598951090082 -0.9082446508294655 0.6939223438094614 -0.911140319437467 C 0.7431154902379388 -1.0268950872911713 0.8039854341698086 -1.0761712834885198 0.8502884486415422 -1.087759494571784 C 0.8880041170119165 -1.0993200223987571 0.9226303339802563 -1.087759494571784 0.9400320288845564 -1.0617372336585773 L 0.9400320288845564 -1.0617372336585773 C 0.9574558703938881 -1.0384832983744354 0.9603460023506326 -1.003762958334708 0.9400320288845564 -0.9690260083412063 C 0.9169054365793513 -0.9343112049527371 0.8705747388513271 -0.8965955365823624 0.7807204255831505 -0.8792768914469344 C 0.8415903695150203 -0.8098251380649635 0.8589865277680627 -0.7518176428335457 0.8531508973419953 -0.7113557954391383 L 0.8531508973419953 -0.7113557954391383 C 0.8502884486415422 -0.6707776783683104 0.827128636428789 -0.6446502210811995 0.7981498037437412 -0.6360573383285832 C 0.7692429475250501 -0.6273315759457718 0.7373629095807418 -0.6360573383285832 0.7112631355499227 -0.6679096930165995 Z M 0.8648221581941301 -1.0298682690167864 C 0.8387279208145672 -1.0240271019394602 0.8068478828702604 -0.9980159143287701 0.7721053962255003 -0.9371515070481573 C 0.8387279208145672 -0.9516021668318742 0.8734648708080682 -0.977729624118985 0.888004117011915 -1.0008783630292226 C 0.8937290144128213 -1.0124388908561959 0.8965914631132731 -1.0211701898902656 0.8907724426409799 -1.0269006239424292 L 0.8907724426409799 -1.0269006239424292 C 0.888004117011915 -1.0327362543684973 0.8793226478391699 -1.0327362543684973 0.8648387681479043 -1.0298738056680443 Z M 0.7749678449259535 -1.3281165989896824 C 0.8068478828702604 -1.2702198367834268 0.841590369515019 -1.2440979161475738 0.8676015571257102 -1.2353998370210533 C 0.8763744852084613 -1.2330668961270268 0.8857045572720365 -1.2341286144355963 0.8937290144128213 -1.2383730187466684 C 0.8969748052818985 -1.2470211970557779 0.8958687079507929 -1.2567021234174125 0.8907558326872057 -1.2643952796598752 L 0.8907558326872057 -1.2643952796598752 C 0.8763273195085214 -1.287549555221371 0.841590369515019 -1.3136714758572237 0.7749678449259535 -1.3281276722921986 Z M 0.8502663020365079 -1.1775196847685723 C 0.8039632875647741 -1.1919703445522891 0.7430933436329045 -1.2412465407496374 0.6939001972044271 -1.3571231149310203 L 0.6939001972044271 -1.3571231149310203 L 0.6939001972044271 -1.3600077102365056 L 0.6939001972044271 -1.3600077102365056 L 0.6939001972044271 -1.3628756955882166 L 0.6939001972044271 -1.3628756955882166 C 0.6649435111244121 -1.4844937771242792 0.6852021180779065 -1.5597866975835761 0.7170821560222133 -1.600364814654404 C 0.7402364315837088 -1.629238450965547 0.7749456983209205 -1.6408266620488112 0.8039632875647741 -1.629238450965547 C 0.8329476569010795 -1.620651104864189 0.8561019324625753 -1.5945236475770779 0.8589643811630284 -1.553939993854992 C 0.8618268298634816 -1.5134726098093267 0.8444251349591815 -1.4554651145779087 0.7836659240524727 -1.3888758098963905 C 0.8705470555950351 -1.3687002527117682 0.9198287884436419 -1.3309845843413932 0.9400043456282637 -1.296269780952924 L 0.9400043456282637 -1.296269780952924 C 0.9631807677947916 -1.2615272943081641 0.96031831909434 -1.2267848076634045 0.9400043456282637 -1.203553018984295 C 0.9226026507239643 -1.1803710601665087 0.890728149430915 -1.1659480836390825 0.8502607653852502 -1.1775307580710885 Z M 0.7633851704939468 -1.5597866975835764 C 0.7460720620097775 -1.5394948707225333 0.7343952645063824 -1.4989167536517056 0.7430933436329045 -1.4323274489701876 C 0.7865615926604755 -1.481603645167536 0.8011008388643225 -1.5221817622383638 0.7981276571387067 -1.5510830818057975 C 0.7987152329707338 -1.560319223313725 0.7942991676305439 -1.5691598098396575 0.7865615926604755 -1.5742373573672932 C 0.7806982789781175 -1.5742373573672932 0.7720832496204687 -1.5713749086668405 0.7633851704939482 -1.5597866975835764 Z M 0.5143023036932363 -1.7479996204524153 C 0.5751722476251074 -1.721977359539209 0.6156617782758053 -1.7190927642337237 0.6417615523066246 -1.7277077935913723 C 0.6533497633898903 -1.7335489606686985 0.6620810624239591 -1.7393015413258945 0.6620810624239591 -1.7451371717519626 L 0.6620810624239591 -1.7451371717519626 C 0.6620810624239591 -1.7538352508784834 0.6562122120903421 -1.7595601482793888 0.6417615523066246 -1.7653957787054568 C 0.6186404966526785 -1.776989526439979 0.5751722476251074 -1.7741215410882683 0.5143023036932363 -1.7479996204524153 Z M 0.6620810624239591 -1.6727011633418603 C 0.6186404966526785 -1.6553880548576907 0.5404574442366382 -1.6611406355148868 0.43325680257674415 -1.7248730281472104 L 0.43039989052754846 -1.7248730281472104 L 0.4274211721506752 -1.7277299401964048 L 0.4246528465216105 -1.7277299401964048 L 0.4246528465216105 -1.7307086585732783 C 0.33193608455298074 -1.8117486230385134 0.30292403196038487 -1.8841790947973576 0.3058972136860004 -1.930482109269091 C 0.30866553931506513 -1.9710602263399186 0.3290736358525276 -1.9999670825586104 0.3579417355124145 -2.008665161685131 C 0.3869261048487186 -2.020253372768395 0.4216685914934798 -2.011527610385584 0.4477960487805911 -1.9796752556975674 C 0.47381830969379723 -1.9478007544045184 0.494126746508614 -1.8927941241550064 0.4854009841258028 -1.803022860655702 C 0.5664464852422949 -1.8377653473004618 0.6273108925229084 -1.8377653473004618 0.6649158278681216 -1.820452238816292 C 0.7025152265620743 -1.8059129926124453 0.7199169214663744 -1.7770116730450116 0.7199169214663744 -1.745153781705737 L 0.7199169214663744 -1.745153781705737 C 0.7199169214663744 -1.7161361924618825 0.6997413642817519 -1.6842838377738663 0.6620533791676685 -1.6726956266906021 Z M 0.3666951811515148 -1.9304821092690907 C 0.3638050491947725 -1.9014922032815271 0.38111815767894164 -1.86103035588712 0.4246694564753847 -1.8117486230385134 C 0.43039989052754846 -1.8783434643712895 0.41883382604931596 -1.9217840301425702 0.401415521191243 -1.942075857003613 C 0.39548869614916937 -1.9487900474252222 0.3871704926709644 -1.9529193419373365 0.37823909902471586 -1.9535810183180051 C 0.3704982457893652 -1.9485095081839694 0.3660824297507971 -1.9396673018347075 0.36667857119774083 -1.9304322794077677 Z M 0.05397404478986967 -1.9333445579695436 C 0.12048029970251639 -1.9478007544045184 0.15533351937243867 -1.9710602263399186 0.16975649589986552 -1.9942089652501562 C 0.1784545750263863 -2.0028239946078052 0.1784545750263863 -2.0145007921111993 0.17550907655706116 -2.017363240811652 C 0.17274075092799646 -2.023115821468848 0.16105841677334498 -2.026089003194463 0.1494868156438548 -2.023115821468848 C 0.1234645547306471 -2.017363240811652 0.08861687171198362 -1.991235783524541 0.053962971487354516 -1.9333445579695436 Z M 0.2218951407976667 -1.95936681888275 C 0.1929384547176506 -1.918899434837085 0.1263159301285851 -1.878321317766257 0.00469231194126285 -1.8667331066829929 L -0.004005767185256359 -1.8667331066829929 C -0.12849183407303033 -1.878321317766257 -0.1950811387545489 -1.918899434837085 -0.22109232636524 -1.95936681888275 C -0.24427428518302485 -1.9941868186451237 -0.24146720299515434 -2.0289293052898834 -0.22407104474211326 -2.052083580851379 C -0.20666934983781315 -2.078105841764586 -0.17479484854476401 -2.0926616979222072 -0.13421119482267774 -2.081073486838943 C -0.09660625947746604 -2.072369871061164 -0.04458388425608506 -2.0376329210676625 -0.0010325854596420214 -1.95936681888275 C 0.04527596566335046 -2.0376329210676625 0.09446911209182651 -2.072369871061164 0.13501954590636467 -2.081073486838943 C 0.1755090765570625 -2.092661697922207 0.20736143124507878 -2.0780947684620696 0.22478527275441051 -2.052083580851379 C 0.24221465091499972 -2.0289293052898834 0.24221465091499972 -1.9941868186451237 0.22189514079766803 -1.95936681888275 Z M -0.17192686319305328 -1.9941868186451237 C -0.15458607145259207 -1.971038079734886 -0.11978821829525221 -1.9477786077994859 -0.05317123035744176 -1.9333224113645109 C -0.08790818035094272 -1.9912136369195084 -0.1227337167645759 -2.0173410942066194 -0.14875044102652324 -2.0230936748638153 C -0.1632287840665313 -2.0260668565894306 -0.17192686319305195 -2.0230936748638153 -0.17477270193973093 -2.0173410942066194 C -0.17775142031660418 -2.0144786455061667 -0.17775142031660418 -2.0028018480027723 -0.17191025323927778 -1.9941868186451237 Z M 0.03943479858602417 -1.756697699578936 L 0.14949788894636995 -1.594523647577078 L 0.3319526945067549 -1.6640916706354696 L 0.21319706167114483 -1.7827421070971752 Z M 0.3985475358395324 -1.614815474438121 L 0.3898217734567212 -1.420766921143214 L 0.5780679162331087 -1.3657326076374112 L 0.5520456553199024 -1.533769973321628 Z M 0.6011889718870561 -1.2904452238293724 L 0.4796816233761553 -1.1369415676977441 L 0.6041621536126706 -0.983471131473665 L 0.6823452060287122 -1.1340680456947752 Z M 0.5780679162331087 -0.9082612607832401 L 0.3898217734567212 -0.8561226158854387 L 0.3985475358395324 -0.6563491651896263 L 0.5491444500606436 -0.7344989976981178 Z M 0.33195823115801393 -0.6129085994183456 L 0.1495034255976303 -0.6794979040998637 L 0.039440335237283075 -0.5144337201412623 L 0.20736696789633624 -0.48831179950540937 Z M -0.04162731248424345 -0.5172795588879406 L -0.14877258763155765 -0.679503440751122 L -0.3341230617999439 -0.6099354176927305 L -0.21538957556936678 -0.49117978485712044 Z M -0.39784991778100787 -0.6591950039363046 L -0.3891518386544873 -0.8561060059316643 L -0.5773370782670362 -0.9082446508294655 L -0.5542160226130901 -0.7402349684015395 Z M -0.6034922188104379 -0.9834545215198907 L -0.47891756550253317 -1.13692495774397 L -0.6034922188104379 -1.2904286138755978 L -0.6816752712264784 -1.1398981394695853 Z M -0.5773370782670362 -1.3686947160605103 L -0.3891518386544873 -1.4207392378869232 L -0.39784991778100787 -1.6176502398822832 L -0.5484468320021191 -1.539467187466243 Z M -0.3311775633306189 -1.6611018789560799 L -0.14877258763155765 -1.5945070376233037 L -0.03877040043504931 -1.7595435383256146 L -0.2066914964428449 -1.7856709956127255 Z M 0.10314504461331542 -1.5307801816422382 L -0.001054732064673769 -1.687229336243191 L -0.10533202186027579 -1.5307801816422382 L -0.11981036490028385 -1.5047579207290318 L -0.1459101389311045 -1.5163461318122957 L -0.32244626429654877 -1.582935436493814 L -0.31383677159015766 -1.3947225136249748 L -0.31383677159015766 -1.3657326076374112 L -0.34284882418275375 -1.3571231149310206 L -0.5223359846687806 -1.3078469187336719 L -0.4065535335587861 -1.1602121129356606 L -0.3861786569288703 -1.1369581776515187 L -0.4065535335587861 -1.113803902090023 L -0.5223359846687806 -0.966169096292012 L -0.34284882418275375 -0.9168929000946633 L -0.31383677159015766 -0.9082778707370145 L -0.31383677159015766 -0.8792879647494507 L -0.32244626429654877 -0.6910750418806118 L -0.1459101389311045 -0.7576698832133879 L -0.11981036490028385 -0.769258094296652 L -0.10238652339095211 -0.743130637009541 L -0.0010658053671902534 -0.5867977520850092 L 0.1031339713107976 -0.743130637009541 L 0.12044707979496672 -0.769258094296652 L 0.14657453708207802 -0.7576698832133879 L 0.3232269321239437 -0.6910750418806118 L 0.3145842195100045 -0.8792879647494507 L 0.3145842195100045 -0.9082612607832401 L 0.3405068207005647 -0.9168762901408889 L 0.5230003828197568 -0.9661524863382374 L 0.4042668965891797 -1.1137872921362484 L 0.3869205681974609 -1.1369415676977441 L 0.4042668965891797 -1.1601955029818862 L 0.5230003828197568 -1.3078303087798973 L 0.3405068207005647 -1.357106504977246 L 0.3145842195100045 -1.3657159976836368 L 0.3145842195100045 -1.3947059036712004 L 0.3232269321239437 -1.5829188265400393 L 0.14657453708207802 -1.5163295218585213 L 0.12044707979496672 -1.5047413107752572 Z M -0.12275032671834996 -1.4121297451805326 C -0.15312838970107445 -1.4531047215708672 -0.199375045874716 -1.4793720021159844 -0.2501265255628691 -1.484477167170505 C -0.261927407524319 -1.434699777749263 -0.25250099549191074 -1.3822568369357755 -0.22410426464966005 -1.3397048100729467 C -0.19432361463069792 -1.2984437540157947 -0.14745492674553595 -1.2728941912949723 -0.09663947938501416 -1.270219836783427 C -0.08364820249080895 -1.3190485833346592 -0.09323701322308864 -1.3711297038854262 -0.12276693667212546 -1.412129745180533 Z M -0.26168705338984144 -1.287555091872629 C -0.3101037780624778 -1.3040302768305683 -0.3633796381535248 -1.2976609567585302 -0.40654799690752985 -1.2702364467372014 C -0.38884863362197697 -1.22198875008019 -0.34887691490405603 -1.1853019258594264 -0.29929198873505314 -1.1717947873676668 C -0.2501265255628664 -1.1543709458583347 -0.19797127071129128 -1.1630690249848552 -0.15460268140636613 -1.1891078958518362 C -0.17568786375121292 -1.2349293698627504 -0.2142581075667569 -1.2703886276717666 -0.2616870533898401 -1.287555091872629 Z M -0.29929198873505314 -1.1052054826861486 C -0.34775784492763595 -1.0897054702479174 -0.3869719528013704 -1.0537038747216756 -0.40654799690752985 -1.0067361400603234 C -0.36347032266580137 -0.9790705033943232 -0.31009765280540547 -0.972648810812129 -0.2616870533898401 -0.9893067618997333 C -0.2124108571924922 -1.00375742168345 -0.17480592184727917 -1.0414730900538252 -0.15460268140636746 -1.0877761045255583 C -0.19825991836308798 -1.1136023662991832 -0.2507505270956477 -1.1199254228288624 -0.29929198873505314 -1.1052054826861486 Z M -0.22408765469588598 -0.9343056683014792 C -0.2544447632663187 -0.8936963138873955 -0.26504664495992547 -0.841637418950514 -0.2529889742633209 -0.7923902232531153 C -0.20379582783484218 -0.7952582086048261 -0.15460268140636613 -0.8184124841663218 -0.12564599532635135 -0.861875196542635 C -0.09500699840263604 -0.9034861421289029 -0.08438071780586653 -0.9565344164150811 -0.09662840608249768 -1.0067361400603236 C -0.14742200921949689 -1.0016239591584895 -0.19370345367502895 -0.9753250339405557 -0.22409319134714356 -0.9343056683014794 Z M -0.06186377283270472 -0.8415889063328499 C -0.06197561924321826 -0.7904391125411916 -0.03975710937870314 -0.741788098039897 -0.0010270488083817808 -0.7083770770622639 C 0.03657788653682992 -0.7402515783553141 0.06270534382394122 -0.7895277745526625 0.05973216209832566 -0.8415889063328499 C 0.06270534382394122 -0.8937275512306513 0.03657788653682992 -0.943003747428 -0.0010270488083817808 -0.9748561021160163 C -0.03977605539105289 -0.9414356656512084 -0.06199697800102666 -0.8927591451541137 -0.06186377283270472 -0.8415889063328499 Z M 0.12345901807939097 -0.8618751965426348 C 0.15323030525968895 -0.820606341534488 0.200101434574257 -0.7950543380204 0.25091826669277795 -0.7923902232531153 C 0.26277944066548786 -0.8416576767128079 0.2521488560155839 -0.8936483551608725 0.2219006774489255 -0.934305668301479 C 0.19294399136891072 -0.9777462340727596 0.14366779517156159 -1.000894972982997 0.0944746487430842 -1.0067361400603232 C 0.08219790435183649 -0.9565397250055079 0.0928135967128122 -0.9034835693354795 0.12345901807938964 -0.8618751965426348 Z M 0.262395744750881 -0.9864498498505385 C 0.3109703895051624 -0.9716306999478193 0.3635372181238029 -0.9779134837681185 0.40725115161731196 -1.003762958334708 C 0.3871036221218881 -1.0509500563323997 0.34830383866198955 -1.0876791549238285 0.30008372986496734 -1.1052110193374065 C 0.24794508496716505 -1.1196063126085423 0.19588948983823584 -1.113792828787507 0.15533905602369769 -1.0877816411768166 C 0.17372995270840408 -1.0394652151080108 0.21314076474750998 -1.002165987743735 0.262395744750881 -0.9864609231530548 Z M 0.300083729864966 -1.1688271422933094 C 0.3483292062376674 -1.1862998567420187 0.38714585413066016 -1.2230328872987433 0.40725115161731196 -1.2702419833884593 C 0.3635288396727351 -1.2960661735280865 0.31097368782561186 -1.3023495705000623 0.262395744750881 -1.2875606285238872 C 0.21313609933220568 -1.2718634679394367 0.17372231732502763 -1.2345614297344647 0.15533905602369635 -1.1862399105001253 C 0.19588948983823584 -1.1602176495869192 0.24794508496716372 -1.1543930924633672 0.300083729864966 -1.168843752247084 Z M 0.2219006774489255 -1.3397269566779788 C 0.2524468753493997 -1.381345023533484 0.2630657478666133 -1.434323897523197 0.2509182666927793 -1.4844993137755376 C 0.20013924261829164 -1.4794092863329507 0.15386113431293802 -1.4531412683829892 0.12345901807939097 -1.412151891785565 C 0.0931184441719558 -1.3715378561661615 0.08249012312705994 -1.3195007030235208 0.09447464874308686 -1.2702419833884595 C 0.14366779517156292 -1.273137651996461 0.19294399136891205 -1.2962642443016659 0.22190067744892705 -1.3397269566779788 Z" fill="#202020" transform="matrix(1,0,0,1,0,0)" fill-rule="evenodd"></path></g></g></g><defs><clipPath id="SvgjsClipPath1003"><path d=" M -0.9563208568859699 -2.0850820223498285 h 1.9126417137719398 v 1.8975820223498288 h -1.9126417137719398 Z"></path></clipPath><clipPath id="SvgjsClipPath1000"><path d=" M -0.9563208568859699 -2.0850820223498285 L 0.9563208568859699 -2.0850820223498285 L 0.9563208568859699 -0.18749999999999978 L -0.9563208568859699 -0.18749999999999978 Z"></path></clipPath></defs></svg>